<?xml version="1.0" encoding="UTF-8" standalone="no"?>
<svg width="115px" height="34px" viewBox="0 0 115 34" version="1.1" xmlns="http://www.w3.org/2000/svg" xmlns:xlink="http://www.w3.org/1999/xlink">
    <!-- Generator: Sketch 3.7.1 (28215) - http://www.bohemiancoding.com/sketch -->
    <title>social-icons</title>
    <desc>Created with Sketch.</desc>
    <defs></defs>
    <g id="Page-1" stroke="none" stroke-width="1" fill="none" fill-rule="evenodd">
        <g id="example-mockup" transform="translate(-952.000000, -311.000000)" fill="#5995DA">
            <g id="social-icons" transform="translate(951.000000, 310.000000)">
                <g id="Group-4" transform="translate(0.645253, 0.502656)">
                    <path d="M17.0845635,0.485828614 C8.0094369,0.485828614 0.651867409,7.8433981 0.651867409,16.9185247 C0.651867409,25.9954766 8.0094369,33.3512209 17.0845635,33.3512209 C26.1606028,33.3512209 33.5172597,25.9954766 33.5172597,16.9185247 C33.5172597,7.8433981 26.1606028,0.485828614 17.0845635,0.485828614 L17.0845635,0.485828614 Z M20.6054644,16.9249131 L18.3020031,16.9249131 L18.3020031,25.1348728 L14.8897044,25.1348728 L14.8897044,16.9249131 L13.26706,16.9249131 L13.26706,14.0245961 L14.8897044,14.0245961 L14.8897044,12.1473298 C14.8897044,10.8030356 15.5276281,8.7030893 18.3330323,8.7030893 L20.860999,8.71312816 L20.860999,11.5285712 L19.026626,11.5285712 C18.7281982,11.5285712 18.3029157,11.6773288 18.3029157,12.318903 L18.3029157,14.0236835 L20.9048049,14.0236835 L20.6054644,16.9249131 L20.6054644,16.9249131 Z" id="Shape"></path>
                </g>
                <g id="Group-3" transform="translate(42.625928, 0.502656)">
                    <path d="M17.095515,0.485828614 C8.02038838,0.485828614 0.662818889,7.8433981 0.662818889,16.9185247 C0.662818889,25.9954766 8.02038838,33.3512209 17.095515,33.3512209 C26.1706417,33.3512209 33.5282112,25.9954766 33.5282112,16.9185247 C33.5282112,7.8433981 26.1706417,0.485828614 17.095515,0.485828614 L17.095515,0.485828614 Z M23.6298982,13.5682844 C23.6371992,13.7124789 23.6399371,13.857586 23.6399371,14.0036058 C23.6399371,18.459033 20.2486287,23.5961898 14.047353,23.5961898 C12.1427081,23.5961898 10.3713061,23.038577 8.87916696,22.0821477 C9.14382773,22.1122643 9.412139,22.1286915 9.68318813,22.1286915 C11.2638518,22.1286915 12.7158355,21.5911563 13.8693915,20.6867466 C12.3945921,20.6584553 11.1488612,19.6837735 10.7208409,18.3458677 C10.9261811,18.3841979 11.1369971,18.4061008 11.3542015,18.4061008 C11.6617556,18.4061008 11.9601834,18.3641201 12.242184,18.2874598 C10.7016758,17.9762552 9.53808102,16.6146212 9.53808102,14.981938 L9.53808102,14.9399573 C9.99348007,15.192754 10.5127628,15.3433368 11.0658125,15.3615893 C10.1614028,14.7574326 9.56637234,13.724343 9.56637234,12.5552725 C9.56637234,11.9374265 9.73246979,11.3579106 10.022684,10.8605309 C11.6845712,12.9002441 14.1696445,14.2427131 16.9713982,14.3832571 C16.913903,14.1368488 16.8837864,13.879489 16.8837864,13.6148282 C16.8837864,11.7530766 18.3932654,10.2445102 20.2559297,10.2445102 C21.2251357,10.2445102 22.1012541,10.6533654 22.7163623,11.3077164 C23.4838785,11.1571335 24.2057636,10.8760455 24.8573767,10.4890932 C24.60458,11.2775998 24.0706953,11.9374265 23.3752763,12.3544953 C24.057006,12.2741845 24.7077064,12.0916598 25.3109505,11.8251738 C24.8610272,12.4996025 24.2888123,13.0928076 23.6298982,13.5682844 L23.6298982,13.5682844 Z" id="Shape"></path>
                </g>
                <g id="Group-2" transform="translate(82.781355, 0.502656)">
                    <ellipse id="Oval" cx="16.7992089" cy="17.0910106" rx="3.29091982" ry="3.188706"></ellipse>
                    <path d="M21.8925598,17.2698847 C21.8925598,19.9940655 19.611914,22.2035266 16.7992089,22.2035266 C13.9874163,22.2035266 11.7058579,19.9940655 11.7058579,17.2698847 C11.7058579,16.7807186 11.780693,16.309805 11.9166739,15.8635322 L10.4126706,15.8635322 L10.4126706,22.7848677 C10.4126706,23.1435287 10.7056227,23.4346555 11.0633711,23.4346555 L22.4720756,23.4346555 C22.8307366,23.4346555 23.1227761,23.1435287 23.1227761,22.7848677 L23.1227761,15.8635322 L21.6817438,15.8635322 C21.8186373,16.3088923 21.8925598,16.779806 21.8925598,17.2698847 L21.8925598,17.2698847 Z" id="Shape"></path>
                    <path d="M20.5272753,13.9953921 L22.3789881,13.9953921 C22.7841928,13.9953921 23.1163877,13.6631972 23.1163877,13.2570798 L23.1163877,11.4920663 C23.1163877,11.0859489 22.7841928,10.753754 22.3789881,10.753754 L20.5272753,10.753754 C20.1211579,10.753754 19.788963,11.0859489 19.788963,11.4920663 L19.788963,13.2570798 C19.788963,13.6641099 20.1202453,13.9953921 20.5272753,13.9953921 L20.5272753,13.9953921 Z" id="Shape"></path>
                    <path d="M16.7836943,0.692994116 C7.707655,0.692994116 0.35099813,8.05056361 0.35099813,17.1256903 C0.35099813,26.2026421 7.707655,33.5583864 16.7836943,33.5583864 C25.8588209,33.5583864 33.2163904,26.2026421 33.2163904,17.1256903 C33.2163904,8.05147623 25.8579083,0.692994116 16.7836943,0.692994116 L16.7836943,0.692994116 Z M24.9754015,23.2156259 C24.9754015,24.3719197 24.0290111,25.3173975 22.8727173,25.3173975 L10.6955839,25.3173975 C9.53837745,25.3173975 8.59198703,24.3719197 8.59198703,23.2156259 L8.59198703,11.0375798 C8.59198703,9.88037343 9.53837745,8.93489564 10.6955839,8.93489564 L22.8727173,8.93489564 C24.0290111,8.93489564 24.9754015,9.88128606 24.9754015,11.0375798 L24.9754015,23.2156259 L24.9754015,23.2156259 Z" id="Shape"></path>
                </g>
            </g>
        </g>
    </g>
</svg>