<?xml version="1.0" encoding="UTF-8" standalone="no"?>
<svg width="300px" height="300px" viewBox="0 0 300 300" version="1.1" xmlns="http://www.w3.org/2000/svg" xmlns:xlink="http://www.w3.org/1999/xlink">
    <!-- Generator: Sketch 3.7.1 (28215) - http://www.bohemiancoding.com/sketch -->
    <title>five</title>
    <desc>Created with Sketch.</desc>
    <defs></defs>
    <g id="Page-1" stroke="none" stroke-width="1" fill="none" fill-rule="evenodd">
        <g id="example-mockup" transform="translate(-777.000000, -665.000000)">
            <g id="five" transform="translate(777.000000, 665.000000)">
                <rect id="Rectangle-70-Copy-3" fill="#C8C6FA" x="0" y="0" width="300" height="300"></rect>
                <path d="M168.34,156.08 C168.26,155.76 168.18,155.52 168.18,155.36 L168.02,154.8 C167.94,154.48 167.86,154.24 167.86,154.16 C167.14,152.32 166.58,150.48 165.54,148.88 L165.06,148.24 C163.7,146.4 161.7,145.28 159.78,144.24 L159.06,144 C158.5,143.76 157.94,143.6 157.46,143.52 C157.14,143.44 156.9,143.36 156.58,143.36 L155.78,143.2 C155.54,143.2 155.22,143.12 154.98,143.12 C154.82,143.04 154.58,143.04 154.18,143.04 L153.46,142.88 C153.06,142.88 152.82,142.88 152.66,142.8 L150.9,142.8 C150.74,142.72 150.5,142.72 150.1,142.72 L147.46,142.72 C147.22,142.72 146.98,142.64 146.74,142.64 C146.42,142.64 146.1,142.56 145.86,142.56 C145.54,142.56 145.14,142.64 145.06,142.56 C144.82,142.32 144.98,141.92 144.98,141.6 C145.22,139.76 145.06,138.24 145.14,136.4 L145.14,135.12 C145.14,134.88 145.06,134.08 145.06,133.04 C148.18,133.04 153.06,132.96 157.78,132.96 L161.94,132.96 C162.18,132.96 162.34,133.04 162.58,133.04 C164.18,132.8 166.98,133.76 167.22,131.44 L167.38,130.64 L167.38,130.16 C167.46,128.64 167.14,127.28 167.46,125.76 C167.46,125.44 167.54,125.12 167.54,124.88 C167.62,123.68 167.54,122.8 166.58,122.24 C165.22,121.6 163.38,122.32 161.54,122.08 L160.82,122.08 C160.26,122.08 159.86,122 159.3,121.92 L143.38,121.92 C140.9,121.6 138.5,121.84 136.02,121.92 L135.38,122.08 C133.54,122.88 134.02,125.52 134.02,127.2 C134.1,127.44 134.1,127.68 134.1,128.08 C134.1,128.48 134.1,128.72 134.02,128.88 L134.02,130.56 C134.02,132.24 133.94,133.92 134.02,135.44 L134.02,136 C134.02,136.4 134.02,136.72 133.94,136.88 L133.94,137.44 C133.94,139.36 133.94,141.2 134.02,143.12 L134.02,143.84 C134.02,145.52 133.78,147.28 134.02,148.88 C134.02,149.2 134.1,149.44 134.1,149.68 C134.66,151.6 136.02,152.08 137.7,152.16 L138.58,152.16 C139.3,152.08 140.1,152.08 140.9,152.16 L144.9,152.16 C146.5,152.4 148.1,152.16 149.7,152.16 C149.94,152.16 150.26,152.24 150.5,152.24 C152.98,152.32 155.22,153.52 156.58,155.52 L156.98,156.32 L157.22,157.04 C157.86,159.36 157.78,161.92 156.58,164.08 C156.5,164.32 156.34,164.56 156.26,164.64 C154.9,166.56 152.5,167.76 150.18,167.68 L149.3,167.68 C147.3,167.68 145.22,167.12 143.94,165.44 C143.78,165.28 143.7,165.12 143.62,164.96 C143.06,164.24 142.74,163.6 142.5,162.88 L142.34,162.16 C142.34,161.92 142.26,161.84 142.26,161.6 L142.1,160.88 C142.02,159.68 141.3,158.96 140.34,158.64 C140.18,158.56 139.94,158.56 139.7,158.56 C137.22,158.8 134.9,158.4 132.42,158.72 L131.86,158.96 C130.98,159.52 130.5,160.24 130.42,161.28 C130.42,161.68 130.42,161.92 130.5,162.08 L130.82,164.56 L130.98,165.2 C131.22,166.4 131.46,167.44 132.1,168.48 C132.34,169.04 132.66,169.6 132.9,170 C133.3,170.96 133.94,171.92 134.74,172.88 L135.3,173.44 C136.18,174.32 137.14,175.12 138.1,175.76 L138.74,176.24 C140.98,177.6 143.54,178 146.02,178.56 L147.22,178.56 C147.94,178.56 148.66,178.56 149.38,178.48 L150.1,178.48 C152.42,178.56 154.66,178.24 156.82,177.52 C157.06,177.44 157.38,177.44 157.62,177.2 C158.5,176.96 159.22,176.64 159.86,176.24 L160.5,175.84 C161.22,175.44 161.86,174.96 162.5,174.56 L163.22,174 C163.86,173.44 164.42,172.88 164.98,172 C165.14,171.84 165.3,171.6 165.38,171.36 C165.94,170.72 166.26,170 166.66,169.36 L166.98,168.64 C167.38,167.76 167.62,167.2 167.86,166.32 L168.02,165.52 L168.26,164.4 C168.26,164.16 168.34,164.08 168.34,163.84 C168.42,163.76 168.42,163.52 168.42,163.2 C168.42,162.88 168.42,162.64 168.5,162.48 C168.5,162.24 168.42,162.16 168.42,161.92 C168.5,160 168.66,158 168.34,156.08 L168.34,156.08 Z M163.86,162.32 C163.94,163.6 163.46,164.8 162.82,165.84 L162.5,166.56 L162.1,167.36 L161.3,168.56 C159.7,170.56 157.62,171.92 155.3,172.96 L153.94,173.36 C152.42,173.68 151.14,173.76 149.62,174 L148.9,174 C148.74,174.08 148.5,174.08 148.18,174.08 C145.54,174 142.9,173.2 140.42,172 L139.78,171.52 C138.98,170.8 138.26,170 137.62,169.12 L137.14,168.48 C135.94,166.64 135.14,164.72 135.7,162.56 C135.78,162.16 136.5,162.08 136.9,162.4 C137.14,162.64 137.22,162.88 137.22,163.28 C137.22,165.04 137.78,166.64 138.82,168 L139.3,168.64 C139.94,169.52 140.66,170.24 141.54,170.88 L142.18,171.2 C143.86,172.08 145.86,172.24 147.7,172.48 C148.1,172.48 148.34,172.48 148.58,172.4 C149.94,172.4 151.14,172.32 152.18,172.08 L153.3,171.84 C153.62,171.76 154.02,171.76 154.34,171.52 C156.66,170.88 158.58,169.36 160.26,167.52 L161.06,166.16 L161.46,165.44 L161.7,164.8 C162.74,162.8 162.58,160.48 162.26,158.32 C162.26,157.92 162.26,157.68 162.18,157.44 C162.02,155.92 161.54,154.64 160.66,153.52 L160.18,152.8 C159.3,151.6 158.42,150.88 157.22,150 C156.98,149.92 156.82,149.84 156.58,149.6 L155.94,149.2 L154.42,148.48 L153.7,148.24 L152.9,148 C152.66,148 152.42,147.92 152.18,147.92 C149.38,147.68 146.66,147.68 143.86,147.44 L143.06,147.44 L141.46,147.6 L140.74,147.6 C140.18,147.6 139.86,147.6 139.3,147.52 C138.1,147.44 138.34,145.76 138.42,144.72 C138.5,144.64 138.5,144.4 138.5,144.16 C138.5,143.92 138.58,143.84 138.5,143.6 C138.58,143.52 138.58,143.28 138.58,142.96 L138.58,142.32 C138.58,142.24 138.58,142.08 138.66,142 C138.66,140.72 138.66,139.36 138.74,138 L138.74,137.2 C138.98,134.56 138.9,131.92 139.14,129.28 L139.14,127.28 C139.14,127.12 139.22,126.96 139.3,126.88 C139.3,126.48 139.54,126.24 140.02,126.24 L144.82,126.24 C145.7,126.24 146.34,126.24 147.22,126.16 L148.02,126.16 C148.74,126.16 149.54,126.16 150.26,126.24 L158.66,126.24 C159.06,126.24 159.3,126.24 159.46,126.16 L161.86,126.16 C162.1,126.16 162.5,126.24 163.06,126.32 C163.7,126.56 163.86,127.44 163.3,127.68 C162.74,127.76 162.34,127.84 162.1,127.84 C161.22,127.92 160.58,127.92 159.7,127.92 L158.9,127.92 C156.26,127.68 153.54,127.76 150.9,127.76 L147.78,127.76 C147.62,127.84 147.38,127.84 147.06,127.84 L140.74,127.84 L140.74,130.48 L140.42,136.56 C140.42,136.8 140.34,137.12 140.34,137.44 C140.26,139.12 140.26,140.72 140.26,142.4 L140.18,142.4 C140.26,143.6 139.62,145.28 140.26,145.68 C140.42,145.84 140.66,145.92 140.9,145.92 C141.22,146 141.46,146.08 141.54,146.08 C142.1,146.08 142.58,146 143.14,146 L143.94,146 C146.58,145.76 149.22,146.16 151.78,146.24 C152.02,146.24 152.26,146.32 152.58,146.4 C152.74,146.4 152.98,146.48 153.3,146.56 C153.38,146.56 153.62,146.64 153.94,146.72 L154.82,146.96 C155.7,147.28 156.42,147.52 157.14,148.08 C157.3,148.16 157.54,148.24 157.86,148.48 L158.5,148.96 C159.86,149.84 160.9,150.96 161.7,152.24 C161.86,152.48 162.02,152.64 162.1,152.88 C162.82,154.4 163.62,156 163.86,157.6 C163.86,157.84 163.94,158.08 163.94,158.32 C163.94,159.36 164.1,160.48 163.86,161.52 L163.86,162.32 Z" id="5" fill="#5D6063"></path>
            </g>
        </g>
    </g>
</svg>