<?xml version="1.0" encoding="UTF-8" standalone="no"?>
<svg width="300px" height="300px" viewBox="0 0 300 300" version="1.1" xmlns="http://www.w3.org/2000/svg" xmlns:xlink="http://www.w3.org/1999/xlink">
    <!-- Generator: Sketch 3.7.1 (28215) - http://www.bohemiancoding.com/sketch -->
    <title>three</title>
    <desc>Created with Sketch.</desc>
    <defs></defs>
    <g id="Page-1" stroke="none" stroke-width="1" fill="none" fill-rule="evenodd">
        <g id="example-mockup" transform="translate(-777.000000, -361.000000)">
            <g id="three" transform="translate(777.000000, 361.000000)">
                <rect id="Rectangle-70-Copy-2" fill="#B2D6FF" x="0" y="0" width="300" height="300"></rect>
                <path d="M168.22,157.76 C168.22,157.68 168.14,157.44 168.06,157.12 C167.98,156.72 167.9,156.32 167.66,155.84 L167.34,155.2 C166.78,154.08 166.06,153.12 165.26,152.24 L164.78,151.68 C164.06,150.8 163.02,150.56 162.06,150 C162.78,149.52 163.5,149.04 164.06,148.48 L164.54,148.08 L164.94,147.6 L165.42,147.12 C166.14,146.24 166.86,145.28 167.26,144.24 C167.34,144.08 167.5,143.84 167.58,143.52 C167.98,142.32 168.22,141.12 168.46,139.92 L168.46,139.2 C168.46,138.56 168.46,137.84 168.54,137.2 C168.54,136.88 168.46,136.64 168.46,136.4 C168.38,134.88 168.06,133.68 167.5,132.4 L167.1,131.12 C166.86,130.4 166.46,129.6 165.98,128.8 L165.74,128.4 L165.5,128 C164.38,126.16 162.86,124.64 161.02,123.52 L160.38,123.2 L159.02,122.56 L157.98,122.16 C155.18,121.12 152.46,121.2 149.58,121.2 L148.78,121.2 C146.3,121.12 143.9,121.6 141.58,122.16 L140.86,122.4 C140.14,122.72 139.42,123.04 138.78,123.44 L138.14,123.92 C137.18,124.56 136.22,125.36 135.34,126.24 L134.78,126.8 C133.98,127.76 133.34,128.72 132.94,129.68 C132.7,130.08 132.38,130.64 132.14,131.2 C131.5,132.24 131.26,133.28 131.02,134.48 L130.86,135.12 L130.54,137.6 C130.46,137.76 130.46,138 130.46,138.4 C130.46,138.64 130.46,138.88 130.54,139.04 L130.78,139.52 C131.74,141.2 133.9,141.04 135.5,140.96 L139.18,140.96 C139.26,140.88 139.42,140.88 139.66,140.88 C139.9,140.88 139.98,140.88 140.06,140.8 C140.7,140.8 141.26,140.56 141.66,140 C141.74,139.76 141.9,139.52 141.98,139.2 C142.22,138.64 142.3,138.08 142.38,137.52 L142.54,136.8 C142.78,136.08 143.1,135.44 143.66,134.72 C143.9,134.32 144.14,134.08 144.38,133.76 L144.86,133.36 L145.34,133.04 C147.5,132 150.06,131.84 152.38,132.08 L153.18,132.32 C154.06,132.56 154.78,133.04 155.42,133.76 L155.98,134.32 C156.22,134.64 156.3,134.88 156.38,135.04 C156.46,135.2 156.62,135.36 156.7,135.6 C156.94,136 157.1,136.4 157.18,136.96 C157.26,137.04 157.26,137.2 157.26,137.44 C157.58,140 156.7,142.88 154.38,144.24 L153.74,144.64 C153.1,144.96 152.46,145.2 151.74,145.36 C151.5,145.36 151.42,145.44 151.18,145.44 C150.62,145.68 150.3,145.6 149.74,145.68 L149.26,145.68 C147.58,146.08 145.58,144.96 144.14,146.24 C143.98,146.32 143.82,146.48 143.74,146.72 C143.66,146.96 143.58,147.12 143.58,147.44 L143.58,149.12 C143.66,150 143.58,150.96 143.58,151.84 L143.58,152.48 C143.58,152.88 143.58,153.12 143.66,153.2 C144.46,155.44 147.34,154.4 149.26,154.8 C149.5,154.8 149.74,154.8 149.82,154.72 C150.38,154.72 150.78,154.64 151.34,154.88 L152.06,154.88 C152.94,155.12 153.82,155.28 154.7,155.84 L155.26,156.32 C156.06,156.96 156.62,157.84 156.86,158.88 C156.94,159.12 157.02,159.28 157.02,159.52 C157.18,160 157.26,160.48 157.26,160.96 C157.26,161.2 157.26,161.36 157.34,161.52 C157.34,161.92 157.34,162.16 157.26,162.4 C157.26,162.64 157.26,162.8 157.18,162.88 C157.18,163.44 156.86,163.76 156.62,164.16 C156.54,164.4 156.38,164.64 156.3,164.72 C155.66,165.76 154.94,166.64 153.74,167.2 L153.18,167.44 L152.38,167.68 C151.82,167.76 151.5,167.76 150.94,167.76 L150.22,167.76 C147.98,168 145.5,167.44 143.98,165.52 C143.82,165.36 143.74,165.2 143.66,165.04 C143.1,164.32 142.78,163.68 142.54,162.96 L142.38,162.24 C142.38,162 142.3,161.92 142.3,161.68 L142.14,160.96 C142.06,159.76 141.34,159.04 140.38,158.72 C140.22,158.64 139.98,158.64 139.74,158.64 C137.26,158.88 134.94,158.48 132.46,158.8 L131.9,159.04 C131.02,159.6 130.54,160.32 130.46,161.36 C130.46,161.76 130.46,162 130.54,162.16 L130.86,164.64 L131.02,165.28 C131.26,166.48 131.5,167.52 132.14,168.56 C132.38,169.12 132.7,169.68 132.94,170.08 C133.34,171.04 133.98,172 134.78,172.96 L135.34,173.52 C136.22,174.4 137.18,175.2 138.14,175.84 L138.78,176.32 C141.02,177.68 143.58,178.08 146.06,178.64 L147.26,178.64 C150.86,178.4 154.54,178.88 157.98,177.6 L159.02,177.2 C160.86,176.32 162.54,175.52 163.82,174 L164.46,173.28 L164.7,172.88 C166.38,171.04 167.34,168.72 167.9,166.4 L168.06,165.6 C168.3,164.88 168.38,164.24 168.46,163.36 C168.46,163.12 168.54,162.88 168.54,162.56 C168.54,162.32 168.46,162.16 168.46,161.92 C168.46,160.56 168.54,159.12 168.22,157.76 L168.22,157.76 Z M163.42,160.96 C163.42,161.2 163.42,161.44 163.34,161.6 C163.34,161.84 163.34,162.08 163.26,162.24 C163.26,162.56 163.26,162.8 163.18,163.04 C163.1,164.08 162.86,164.96 162.62,165.76 L162.46,166.32 C162.22,167.2 161.82,167.92 161.42,168.48 C161.18,168.72 161.26,168.88 161.02,169.12 C160.06,170.4 158.78,171.36 157.42,172.08 L156.7,172.48 L156.14,172.72 C155.9,172.96 155.82,172.96 155.58,173.04 C153.1,174 150.54,174.24 147.9,174 C147.74,173.92 147.5,173.92 147.26,173.92 C147.02,173.84 146.62,173.76 146.06,173.52 C145.9,173.52 145.66,173.44 145.34,173.36 C144.38,173.12 143.5,172.88 142.62,172.32 L141.98,172 C140.62,171.12 139.34,170.24 138.3,169.04 C137.58,168.16 136.94,167.28 136.54,166.24 C135.98,165.2 135.74,164.08 135.34,163.04 C135.1,162.64 135.5,162.16 135.9,162.08 C136.46,161.92 136.78,162.08 136.94,162.64 C137.34,163.84 137.66,164.8 138.22,166 C139.1,167.92 140.78,169.36 142.7,170.56 L143.1,170.8 L143.58,171.04 L144.62,171.52 C144.86,171.6 145.02,171.68 145.1,171.68 C145.5,171.92 145.9,171.92 146.22,172 C146.54,172.08 146.7,172.16 146.78,172.16 L148.14,172.4 C148.38,172.4 148.54,172.4 148.62,172.48 C150.54,172.56 152.46,172.64 154.3,171.92 L154.94,171.68 C155.66,171.44 156.22,171.12 156.78,170.72 C157.02,170.48 157.18,170.4 157.42,170.32 C158.38,169.6 159.26,168.8 159.9,167.76 L160.3,167.12 C160.62,166.48 160.94,165.84 161.18,165.12 L161.34,164.56 L161.58,163.52 C161.58,163.28 161.66,163.12 161.66,162.88 C161.74,162.16 161.74,161.52 161.74,160.64 C161.66,160.48 161.66,160.24 161.66,159.92 L161.5,159.28 C161.26,158.4 161.18,157.68 160.78,156.8 L160.54,156.24 L160.22,155.68 L159.9,155.12 L159.42,154.56 L158.3,153.52 C158.06,153.44 157.9,153.36 157.66,153.12 C155.74,151.6 153.34,151.2 150.86,150.96 C150.7,150.88 150.46,150.88 150.14,150.88 C149.82,150.88 149.42,150.8 149.1,150.8 L148.54,150.8 C147.66,150.72 146.78,151.12 146.14,150.4 C145.82,150 145.82,149.68 146.22,149.44 C146.86,149.04 147.58,149.36 148.3,149.28 L149.5,149.28 C149.74,149.28 149.9,149.28 149.98,149.2 C152.3,148.8 154.38,147.92 156.38,146.72 L156.94,146.48 L157.5,146.16 C160.06,144.64 161.58,142.16 162.14,139.36 L162.3,138.64 C162.54,137.36 162.46,136 162.14,134.8 C162.14,134.64 162.06,134.4 161.98,134.08 C161.66,133.12 161.26,132.16 160.7,131.28 C160.62,131.04 160.46,130.96 160.38,130.72 C159.82,130 159.34,129.28 158.46,128.72 L157.9,128.32 C157.02,127.76 156.14,127.44 155.26,127.12 C155.18,127.12 154.94,127.04 154.62,126.96 C153.66,126.72 152.78,126.64 151.82,126.56 C151.66,126.48 151.42,126.48 151.1,126.48 C148.94,126.4 146.94,126.96 144.78,127.52 L144.14,127.76 C143.42,128 142.78,128.32 142.22,128.72 C141.98,128.8 141.82,128.88 141.58,129.12 C141.34,129.36 141.18,129.44 141.02,129.52 C139.5,131.04 137.74,132.56 137.42,134.72 C137.42,134.96 137.34,135.04 137.34,135.28 C137.18,135.84 137.1,136.4 137.1,136.88 C137.1,137.92 135.5,137.92 135.5,136.88 C135.5,136.16 135.66,135.36 135.9,134.56 C135.9,134.48 135.98,134.24 136.06,133.92 C136.7,131.6 138.46,129.68 140.38,128.16 L140.94,127.68 C141.98,126.96 143.26,126.32 144.7,125.84 C144.94,125.76 145.1,125.68 145.34,125.68 C147.58,124.96 150.06,124.8 152.38,125.04 C152.62,125.04 152.62,125.12 152.86,125.12 C153.1,125.2 153.34,125.2 153.66,125.2 C153.82,125.28 154.06,125.28 154.38,125.28 L155.02,125.44 C155.9,125.68 156.7,126 157.26,126.24 L157.98,126.64 C159.82,127.68 161.18,129.04 162.22,130.88 C162.46,131.12 162.46,131.2 162.54,131.44 C163.1,132.72 163.5,134 163.66,135.28 C163.74,135.44 163.74,135.68 163.74,136 C163.98,137.84 163.58,139.44 163.18,141.12 L162.94,141.76 C162.38,143.76 161.02,145.28 159.42,146.56 L159.02,146.88 L157.82,147.76 L157.34,148 L156.06,148.72 C155.9,148.8 155.66,148.96 155.34,149.04 C154.7,149.36 153.98,149.6 153.26,149.76 C154.7,150 156.06,150.48 157.42,151.12 L157.98,151.44 C158.54,151.76 158.94,152 159.5,152.56 L160.06,152.96 L160.62,153.44 L160.86,153.84 L161.18,154.24 L161.66,154.88 L162.14,155.52 C162.22,155.76 162.3,155.84 162.3,155.92 C162.86,157.44 163.34,158.8 163.42,160.32 L163.42,160.96 Z" id="3" fill="#5D6063"></path>
            </g>
        </g>
    </g>
</svg>