<?xml version="1.0" encoding="UTF-8" standalone="no"?>
<svg width="300px" height="300px" viewBox="0 0 300 300" version="1.1" xmlns="http://www.w3.org/2000/svg" xmlns:xlink="http://www.w3.org/1999/xlink">
    <!-- Generator: Sketch 3.7.1 (28215) - http://www.bohemiancoding.com/sketch -->
    <title>two</title>
    <desc>Created with Sketch.</desc>
    <defs></defs>
    <g id="Page-1" stroke="none" stroke-width="1" fill="none" fill-rule="evenodd">
        <g id="example-mockup" transform="translate(-473.000000, -361.000000)">
            <g id="two" transform="translate(473.000000, 361.000000)">
                <rect id="Rectangle-70-Copy" fill="#F09A9D" x="0" y="0" width="300" height="300"></rect>
                <path d="M166.38,167.04 L165.58,167.04 C163.26,167.28 160.94,167.04 158.62,166.96 L143.9,166.96 L144.62,165.92 C146.78,162.8 150.38,161.28 153.5,159.12 C153.74,158.88 154.06,158.72 154.38,158.48 L155.18,157.84 C155.5,157.6 155.82,157.44 156.06,157.2 C156.62,156.8 157.18,156.48 157.74,155.92 L158.7,155.2 C160.22,154 161.66,152.64 162.86,151.04 L163.74,150.08 C165.02,148.56 166.06,146.96 166.78,145.44 L167.26,144.4 C168.54,140.96 168.94,137.12 167.9,133.6 L167.58,132.32 L167.1,131.12 C166.86,130.72 166.78,130.32 166.54,129.92 L165.98,128.8 C165.58,127.92 165.02,127.2 164.46,126.48 L163.82,125.76 C162.54,124.24 160.86,123.44 159.02,122.56 L157.98,122.16 C155.82,121.28 153.42,121.2 151.18,121.2 L150.14,121.2 C148.62,120.96 147.34,121.04 145.82,121.28 C145.58,121.28 145.18,121.36 144.78,121.44 C144.06,121.52 143.42,121.6 142.78,121.84 L141.9,122.16 C140.38,122.72 138.94,123.44 137.74,124.32 L136.78,125.04 L135.82,125.92 L134.94,126.88 C133.02,129.36 131.42,132.24 130.86,135.36 L130.7,136.4 C130.46,137.28 130.3,138.08 130.86,138.96 C132.22,140.96 134.7,140.56 136.7,140.96 C137.1,140.96 137.5,141.04 137.9,140.96 C139.58,140.96 141.02,140.64 141.9,139.12 L142.46,137.2 C142.86,135.92 143.42,134.72 144.38,133.76 L144.86,133.36 L145.34,133.04 C147.5,132 150.06,131.84 152.38,132.08 L153.18,132.32 C154.06,132.56 154.78,133.04 155.42,133.76 L155.98,134.32 C156.22,134.64 156.3,134.88 156.38,135.04 C156.46,135.2 156.62,135.36 156.7,135.6 C157.1,136.32 157.26,137.12 157.26,138 C157.34,138.24 157.26,138.64 157.18,139.2 C156.94,140.4 156.46,141.28 155.9,142.16 L155.26,143.04 C154.62,143.92 153.9,144.72 153.02,145.44 L152.22,146.16 C151.34,147.04 150.46,147.68 149.58,148.4 L148.62,149.12 C147.82,149.84 146.86,150.56 145.82,151.28 L144.86,152 C141.74,154.32 138.46,156.24 135.9,159.2 L135.42,159.76 L134.7,160.72 C132.7,163.28 131.66,166.32 131.1,169.52 L130.94,170.72 C130.94,171.12 130.86,171.52 130.86,171.92 C129.98,175.12 130.86,178.88 134.94,178.24 C135.34,178.24 135.74,178.16 136.14,178.16 C137.42,178.08 138.62,177.84 139.82,178.08 L143.5,178.08 C144.22,178.16 144.94,178.16 145.82,178.16 L149.34,178.16 C153.18,178.08 156.94,178.32 160.7,178.4 L161.66,178.4 C162.94,178.48 164.22,178.48 165.26,178.16 C166.14,178.24 166.78,178.16 167.18,177.76 L167.58,177.2 C167.98,175.36 167.9,173.36 167.9,171.52 C167.82,170.96 167.98,170.4 168.06,169.84 L168.06,169.04 C168.06,168.24 167.74,167.68 167.1,167.28 L166.38,167.04 Z M163.1,173.52 C154.06,173.52 145.1,173.36 136.06,173.36 C135.5,173.36 135.26,173.12 135.26,172.56 L135.26,172.4 C135.18,170.08 135.74,167.92 136.78,165.84 C137.82,163.92 139.18,162.32 140.7,160.8 C141.58,159.92 142.38,159.36 143.26,158.72 C143.5,158.48 143.82,158.32 144.14,158.08 C145.98,157.04 147.34,155.68 149.02,154.4 C151.18,152.88 153.18,151.76 155.02,149.92 L155.98,149.04 C157.58,147.44 158.94,145.76 160.14,143.84 L160.7,142.8 C160.94,142.4 161.02,142 161.1,141.76 C161.34,141.36 161.42,140.96 161.5,140.72 L161.74,139.44 C162.3,135.68 161.02,131.44 157.82,129.2 L156.62,128.56 C156.22,128.32 155.82,128.16 155.5,128.08 C153.34,127.36 151.1,127.28 148.94,127.28 C148.22,127.28 147.5,127.36 146.78,127.36 C143.34,128.24 140.14,130.16 138.22,132.96 L137.58,134.16 C137.18,135.04 137.02,135.76 137.02,136.4 C137.02,137.44 135.42,137.44 135.42,136.4 C135.42,135.68 135.58,135.04 135.82,134.32 C136.06,133.6 136.38,132.96 136.7,132.32 C138.86,128.8 142.54,126.4 146.62,125.76 C147.02,125.76 147.34,125.68 147.9,125.68 C151.34,125.76 155.1,125.76 158.22,127.6 C158.46,127.68 158.86,127.92 159.26,128.24 C162.38,130.8 163.66,134.88 163.34,138.8 L163.18,139.92 L162.94,141.04 C162.86,141.28 162.78,141.68 162.54,142.24 C162.46,142.56 162.3,142.96 162.06,143.36 L161.5,144.48 C160.22,146.96 158.54,148.88 156.62,150.72 L155.82,151.52 L153.98,153.04 C150.86,154.96 148.38,157.12 145.5,159.12 L144.54,159.76 C143.66,160.32 142.86,161.04 141.98,161.76 C139.18,164.4 136.86,167.84 136.86,171.76 C145.58,171.76 154.38,171.92 163.1,171.92 C164.14,171.92 164.14,173.52 163.1,173.52 L163.1,173.52 Z" id="2" fill="#5D6063"></path>
            </g>
        </g>
    </g>
</svg>